# xmcd CD database file
#
# Track frame offsets:
#	150
#	10595
#	25905
#	39409
#	54710
#	68274
#	82461
#	96413
#	108316
#	124113
#	139230
#	151580
#	160038
#	170426
#	182018
#	194715
#	206448
#	220477
#	232253
#	245405
#
# Disc length: 3432 seconds
#
# Revision: 0
# Processed by: cddbd v1.5.2PL0 Copyright (c) Steve Scherf et al.
# Submitted via: CDex 1.70beta2
#
DISCID=170d6614
DTITLE=Maxim Saury et son orchestre - Standards de Chicago
DYEAR=2007
DGENRE=Jazz
TTITLE0=In a little spanish town
TTITLE1=Riverboat shuffle
TTITLE2=Someday sweetheart
TTITLE3=Chicago (That Todd'ling Town)
TTITLE4=Big butter and egg man
TTITLE5=South Rampart Street parade
TTITLE6=If i could be with you (One hour tonight)
TTITLE7=China boy
TTITLE8=Four or five times
TTITLE9=That's a plenty
TTITLE10=Livery stable blues
TTITLE11=Clarinet marmalade
TTITLE12=Skeleton jungle
TTITLE13=At the jazz band ball
TTITLE14=Copenhagen
TTITLE15=Bluin' the blues
TTITLE16=Ostrich walk
TTITLE17=Chicago breakdown
TTITLE18=Tansy
TTITLE19=Fidgety feet
EXTD=YEAR: 2007
EXTT0=
EXTT1=
EXTT2=
EXTT3=
EXTT4=
EXTT5=
EXTT6=
EXTT7=
EXTT8=
EXTT9=
EXTT10=
EXTT11=
EXTT12=
EXTT13=
EXTT14=
EXTT15=
EXTT16=
EXTT17=
EXTT18=
EXTT19=
PLAYORDER=
